# xmcd
#
# Track frame offsets:
#	150
#	16926
#	34877
#	48067
#	65092
#	78653
#	96252
#	108540
#	125742
#	140377
#	153279
#	168618
#	186035
#	197606
#	213764
#
# Disc length: 2993 seconds
#
# Revision: 2
# Processed by: cddbd v1.5.2PL0 Copyright (c) Steve Scherf et al.
# Submitted via: audiograbber 1.81.02
#
DISCID=ce0baf0f
DTITLE=Various Artist - CDX Volume 185 - April 1998
DYEAR=1998
DGENRE=
TTITLE0=Collin Raye - I Can Still Feel You
TTITLE1=Brooks and Dunn and Reba - If You See Him - If You See Her
TTITLE2=Brad Hawkins - I'm The One
TTITLE3=Melodie Crittenden - I Should've Known
TTITLE4=Ruby Lovett - Little Bitty Crack In His Heart
TTITLE5=John Berry - Over My Shoulder
TTITLE6=John Denver - Perhaps Love
TTITLE7=Chris LeDoux - Runaway Love (Edit #1)
TTITLE8=Chris LeDoux - Runaway Love (Edit #2)
TTITLE9=Deryl Dodd - Time On My Hands
TTITLE10=Jeff Foxworthy - Totally Committed
TTITLE11=Juice Newton - When I Get Over You
TTITLE12=Wade Hayes - When The Wrong One Loves You Right
TTITLE13=Monty Holmes - Why'd You Start Lookin' So Good
TTITLE14=Seth Matthews - I Like The Sound Of That
EXTD=
EXTT0=
EXTT1=
EXTT2=
EXTT3=
EXTT4=
EXTT5=
EXTT6=
EXTT7=
EXTT8=
EXTT9=
EXTT10=
EXTT11=
EXTT12=
EXTT13=
EXTT14=
PLAYORDER=
